<svg width="9" height="5" viewBox="0 0 9 5" fill="none" xmlns="http://www.w3.org/2000/svg">
<path fill-rule="evenodd" clip-rule="evenodd" d="M8.0427 0.294226L4.4993 3.42709L0.955904 0.294227L0.29353 1.0434L3.97535 4.29865C4.04743 4.36474 4.13037 4.41466 4.21789 4.44816C4.30838 4.48279 4.40399 4.5 4.4993 4.5C4.59462 4.5 4.69022 4.48279 4.78072 4.44816C4.86824 4.41466 4.95118 4.36473 5.02326 4.29864L8.70508 1.0434L8.0427 0.294226ZM4.6537 3.56393C4.65171 3.56205 4.64971 3.56023 4.6477 3.55845L4.6537 3.56393ZM4.35091 3.55846C4.3489 3.56023 4.3469 3.56205 4.34491 3.56393L4.35091 3.55846Z" fill="#222222"/>
</svg>
