<svg width="18" height="35" viewBox="0 0 18 35" fill="none" xmlns="http://www.w3.org/2000/svg">
<path fill-rule="evenodd" clip-rule="evenodd" d="M0.939341 1.99893L16.1085 17.1951C16.1141 17.2007 16.1198 17.2062 16.1256 17.2117C16.1648 17.2485 16.1961 17.2931 16.2175 17.3426C16.2389 17.3922 16.25 17.4457 16.25 17.4999C16.25 17.554 16.2389 17.6075 16.2175 17.6571C16.1961 17.7067 16.1648 17.7512 16.1256 17.7881C16.1198 17.7935 16.1141 17.799 16.1085 17.8046L0.939343 33.0008L2.00095 34.0605L17.1628 18.8717C17.3468 18.6963 17.4936 18.4855 17.5944 18.2521C17.6971 18.0146 17.75 17.7586 17.75 17.4999C17.75 17.2411 17.6971 16.9851 17.5944 16.7476C17.4936 16.5142 17.3468 16.3035 17.1628 16.128L2.00094 0.93921L0.939341 1.99893Z" fill="#222222"/>
</svg>
