<svg width="18" height="11" viewBox="0 0 18 11" fill="none" xmlns="http://www.w3.org/2000/svg">
<path fill-rule="evenodd" clip-rule="evenodd" d="M-2.40413e-07 5.5C-2.47496e-07 5.66205 0.067724 5.81747 0.188276 5.93206C0.308826 6.04665 0.47233 6.11103 0.642816 6.11103L15.8043 6.11103L11.7584 9.9556C11.6377 10.0703 11.5699 10.2259 11.5699 10.3882C11.5699 10.5505 11.6377 10.7061 11.7584 10.8208C11.8791 10.9355 12.0428 11 12.2135 11C12.3842 11 12.5479 10.9355 12.6686 10.8208L17.8111 5.93261C17.871 5.87585 17.9185 5.80842 17.9509 5.73419C17.9833 5.65995 18 5.58037 18 5.5C18 5.41963 17.9833 5.34005 17.9509 5.26582C17.9185 5.19158 17.871 5.12415 17.8111 5.06739L12.6686 0.179191C12.6089 0.12238 12.5379 0.0773158 12.4598 0.0465701C12.3817 0.0158244 12.298 -2.49241e-07 12.2135 -2.52936e-07C12.0428 -2.60397e-07 11.8791 0.0644566 11.7584 0.179191C11.6377 0.293925 11.5699 0.449538 11.5699 0.611797C11.5699 0.774056 11.6377 0.929669 11.7584 1.0444L15.8043 4.88898L0.642816 4.88897C0.47233 4.88897 0.308826 4.95335 0.188276 5.06794C0.067724 5.18253 -2.33329e-07 5.33795 -2.40413e-07 5.5Z" fill="#6A6A6A"/>
</svg>
