<svg width="20" height="20" viewBox="0 0 20 20" fill="none" xmlns="http://www.w3.org/2000/svg">
<path fill-rule="evenodd" clip-rule="evenodd" d="M9.19226 0.0685315C8.72886 0.169451 8.48302 0.252371 8.11082 0.433251C7.1981 0.876851 6.42798 1.69913 6.04338 2.64069C5.78166 3.28153 5.7487 3.48857 5.72346 4.65181L5.70086 5.69181L4.12086 5.71181C2.5663 5.73149 2.53886 5.73325 2.41578 5.82101C2.34702 5.87009 2.26154 5.97169 2.2259 6.04681C2.15386 6.19865 0.880859 17.4244 0.880859 17.9078C0.880859 18.2309 0.965739 18.5757 1.11218 18.8477C1.26062 19.1233 1.66458 19.5426 1.9437 19.7108C2.43514 20.0069 1.8609 19.9869 9.9689 19.9895C15.1287 19.9911 17.2984 19.979 17.4489 19.9476C17.8386 19.8663 18.1563 19.6842 18.4817 19.3556C18.934 18.8988 19.1209 18.4761 19.1209 17.9095C19.1209 17.4279 17.8475 6.19781 17.7757 6.04657C17.7401 5.97161 17.6547 5.87009 17.5859 5.82101C17.4629 5.73325 17.4354 5.73149 15.8809 5.71181L14.3009 5.69181L14.2783 4.65181C14.253 3.48857 14.2201 3.28153 13.9583 2.64069C13.4567 1.41265 12.3693 0.470731 11.0549 0.125852C10.5123 -0.0165085 9.69782 -0.0415885 9.19226 0.0685315ZM9.36086 1.49385C8.5113 1.67581 7.67722 2.39653 7.34954 3.23181C7.19178 3.63393 7.16086 3.89733 7.16086 4.83917V5.71181H10.0009H12.8409V4.83917C12.8409 3.89733 12.8099 3.63393 12.6522 3.23181C12.3208 2.38701 11.4864 1.67225 10.6209 1.49161C10.2737 1.41917 9.70486 1.42017 9.36086 1.49385ZM2.90402 12.5018C2.50498 16.0799 2.3169 17.9018 2.3361 18.0027C2.3705 18.1835 2.5703 18.4231 2.74894 18.4978C2.94134 18.5782 17.0604 18.5782 17.2528 18.4978C17.4315 18.4231 17.6312 18.1835 17.6655 18.0027C17.6847 17.9019 17.496 16.0746 17.0975 12.5018L16.5009 7.15185L10.0007 7.15181H3.50062L2.90402 12.5018Z" fill="white"/>
</svg>
