<svg width="10" height="12" viewBox="0 0 10 12" fill="none" xmlns="http://www.w3.org/2000/svg">
<path d="M6.87474 11.2518C6.89974 11.4518 6.83724 11.6651 6.69351 11.8051C6.6357 11.8669 6.56703 11.9159 6.49143 11.9493C6.41584 11.9828 6.33479 12 6.25295 12C6.17111 12 6.09007 11.9828 6.01447 11.9493C5.93887 11.9159 5.8702 11.8669 5.81239 11.8051L3.30648 9.13209C3.23837 9.061 3.18657 8.97407 3.15514 8.8781C3.1237 8.78213 3.11348 8.67971 3.12526 8.57884V5.16597L0.131924 1.07985C0.0304432 0.940892 -0.015347 0.764735 0.00455909 0.589873C0.0244652 0.415012 0.108449 0.255663 0.238159 0.146647C0.356893 0.0533261 0.488125 0 0.625606 0H9.37439C9.51188 0 9.64311 0.0533261 9.76184 0.146647C9.89155 0.255663 9.97553 0.415012 9.99544 0.589873C10.0153 0.764735 9.96956 0.940892 9.86808 1.07985L6.87474 5.16597V11.2518ZM1.90043 1.33315L4.37509 4.70603V8.38553L5.62491 9.71868V4.69936L8.09957 1.33315H1.90043Z" fill="#222222"/>
</svg>
