<svg width="105" height="105" viewBox="0 0 105 105" fill="none" xmlns="http://www.w3.org/2000/svg">
<path d="M58.5577 78.75C58.5577 79.9481 58.2024 81.1193 57.5368 82.1155C56.8712 83.1116 55.9251 83.8881 54.8182 84.3466C53.7113 84.8051 52.4933 84.925 51.3182 84.6913C50.1431 84.4575 49.0638 83.8806 48.2166 83.0334C47.3694 82.1862 46.7925 81.1069 46.5587 79.9318C46.325 78.7567 46.4449 77.5387 46.9034 76.4318C47.3619 75.3249 48.1384 74.3788 49.1345 73.7132C50.1307 73.0476 51.3019 72.6923 52.5 72.6923C54.1066 72.6923 55.6474 73.3305 56.7834 74.4666C57.9195 75.6026 58.5577 77.1434 58.5577 78.75ZM52.5 24.2308C41.364 24.2308 32.3077 32.3834 32.3077 42.4038V44.4231C32.3077 45.4941 32.7332 46.5213 33.4905 47.2787C34.2479 48.036 35.2751 48.4615 36.3462 48.4615C37.4172 48.4615 38.4444 48.036 39.2018 47.2787C39.9591 46.5213 40.3846 45.4941 40.3846 44.4231V42.4038C40.3846 36.851 45.8214 32.3077 52.5 32.3077C59.1786 32.3077 64.6154 36.851 64.6154 42.4038C64.6154 47.9567 59.1786 52.5 52.5 52.5C51.4289 52.5 50.4017 52.9255 49.6444 53.6828C48.887 54.4402 48.4616 55.4674 48.4616 56.5385V60.5769C48.4616 61.648 48.887 62.6752 49.6444 63.4325C50.4017 64.1899 51.4289 64.6154 52.5 64.6154C53.5711 64.6154 54.5983 64.1899 55.3556 63.4325C56.113 62.6752 56.5385 61.648 56.5385 60.5769V60.2134C65.7462 58.5223 72.6923 51.1774 72.6923 42.4038C72.6923 32.3834 63.6361 24.2308 52.5 24.2308ZM105 52.5C105 62.8835 101.921 73.0338 96.1522 81.6674C90.3834 90.301 82.184 97.0301 72.5909 101.004C62.9978 104.977 52.4418 106.017 42.2578 103.991C32.0738 101.965 22.7192 96.9653 15.3769 89.6231C8.03466 82.2808 3.03452 72.9262 1.0088 62.7422C-1.01693 52.5582 0.0227474 42.0022 3.99635 32.4091C7.96995 22.816 14.699 14.6166 23.3326 8.84784C31.9662 3.07907 42.1165 0 52.5 0C66.4194 0.0146991 79.7644 5.55065 89.6069 15.3931C99.4493 25.2356 104.985 38.5806 105 52.5ZM96.9231 52.5C96.9231 43.7139 94.3177 35.1252 89.4364 27.8199C84.5552 20.5145 77.6172 14.8207 69.5 11.4584C61.3827 8.09615 52.4507 7.21642 43.8335 8.9305C35.2163 10.6446 27.3008 14.8755 21.0882 21.0881C14.8755 27.3008 10.6446 35.2162 8.93052 43.8335C7.21645 52.4507 8.09617 61.3827 11.4584 69.5C14.8207 77.6172 20.5145 84.5552 27.8199 89.4364C35.1252 94.3177 43.714 96.9231 52.5 96.9231C64.2776 96.9097 75.5691 92.2251 83.8971 83.8971C92.2252 75.569 96.9097 64.2776 96.9231 52.5Z" fill="#2FB4C6"/>
</svg>
