<svg width="20" height="20" viewBox="0 0 20 20" fill="none" xmlns="http://www.w3.org/2000/svg">
<path fill-rule="evenodd" clip-rule="evenodd" d="M7.72805 0.0153234C7.66198 0.0244068 7.44577 0.0520973 7.24758 0.0769067C5.51585 0.293669 3.76635 1.16964 2.4624 2.47285C1.18335 3.7511 0.396586 5.28748 0.0739518 7.13686C-0.0321515 7.74509 -0.0222619 9.25378 0.0919293 9.87617C0.410239 11.6113 1.21478 13.1748 2.41359 14.3878C4.6973 16.6988 8.04808 17.5002 11.1358 16.4741C11.998 16.1875 13.1033 15.5891 13.714 15.0781L13.8993 14.923L16.3791 17.4041C17.743 18.7687 18.9075 19.911 18.967 19.9426C19.027 19.9744 19.1841 20 19.32 20C19.563 20 19.5664 19.9984 19.7824 19.7825C19.9984 19.5667 20 19.5632 20 19.3204C20 19.1846 19.9744 19.0276 19.9425 18.9676C19.9109 18.9082 18.7679 17.7443 17.4025 16.3812L14.92 13.9029L15.0751 13.7177C15.5866 13.1072 16.1852 12.0028 16.4722 11.1404C17.0597 9.37458 17.0611 7.55894 16.4761 5.78543C15.5012 2.82959 12.968 0.652164 9.87013 0.107158C9.43091 0.0298889 8.053 -0.0291734 7.72805 0.0153234ZM7.80813 1.45887C6.05354 1.66219 4.66234 2.31707 3.48443 3.49428C2.19762 4.78029 1.50503 6.37629 1.43556 8.21554C1.36137 10.1795 2.08239 12.0055 3.48828 13.4141C4.52853 14.4564 5.90695 15.1617 7.34339 15.3869C7.86854 15.4691 8.949 15.4775 9.44972 15.4032C10.6372 15.2269 11.784 14.7395 12.7417 14.004C13.1049 13.7251 13.7809 13.0453 14.0487 12.6897C14.7452 11.7651 15.2295 10.6063 15.4005 9.45601C15.4748 8.95558 15.4664 7.87578 15.3841 7.35094C15.1588 5.91535 14.4531 4.53775 13.4102 3.49812C12.2744 2.36585 10.926 1.7026 9.33758 1.4948C8.9156 1.43958 8.13324 1.42121 7.80813 1.45887Z" fill="#222222"/>
</svg>
