<svg width="106" height="105" viewBox="0 0 106 105" fill="none" xmlns="http://www.w3.org/2000/svg">
<path d="M99.4819 11.2793C100.371 12.8174 101.175 14.2871 101.893 15.6885C102.611 17.0898 103.261 18.5083 103.843 19.9438C104.424 21.3794 104.834 22.8662 105.074 24.4043C105.313 25.9424 105.467 27.6514 105.536 29.5312C105.536 32.2314 105.194 34.8291 104.51 37.3242C103.826 39.8193 102.834 42.1777 101.534 44.3994C100.234 46.6211 98.6782 48.6206 96.8655 50.3979C95.0528 52.1753 93.0521 53.7134 90.8632 55.0122C88.6743 56.311 86.3315 57.3022 83.8348 57.9858C81.3381 58.6694 78.7217 59.0283 75.9855 59.0625C75.1989 59.0625 74.4123 59.0283 73.6256 58.96C72.839 58.8916 72.0353 58.7891 71.2144 58.6523L29.8649 99.9756C28.2232 101.616 26.3592 102.864 24.273 103.718C22.1867 104.573 19.9807 105 17.655 105C15.2951 105 13.072 104.556 10.9857 103.667C8.89941 102.778 7.08673 101.548 5.54766 99.9756C4.0086 98.4033 2.77735 96.5747 1.85391 94.4897C0.93047 92.4048 0.46875 90.1831 0.46875 87.8247C0.46875 85.5347 0.896268 83.3472 1.7513 81.2622C2.60634 79.1772 3.85469 77.2974 5.49636 75.6226L46.8459 34.2993C46.7091 33.5132 46.6065 32.7271 46.5381 31.9409C46.4697 31.1548 46.4355 30.3516 46.4355 29.5312C46.4355 26.8311 46.7775 24.2334 47.4615 21.7383C48.1456 19.2432 49.1374 16.8848 50.4371 14.6631C51.7367 12.4414 53.2929 10.4419 55.1056 8.66455C56.9182 6.88721 58.919 5.34912 61.1079 4.05029C63.2968 2.75146 65.6396 1.76025 68.1363 1.07666C70.633 0.393066 73.2494 0.0341797 75.9855 0C77.8324 0 79.5254 0.136719 81.0645 0.410156C82.6035 0.683594 84.1084 1.11084 85.579 1.69189C87.0497 2.27295 88.4691 2.90527 89.8371 3.58887C91.2052 4.27246 92.6758 5.09277 94.2491 6.0498L74.0361 26.25L79.2689 31.4795L99.4819 11.2793ZM75.9855 52.5C79.1663 52.5 82.1418 51.9019 84.9121 50.7056C87.6824 49.5093 90.1107 47.8687 92.197 45.7837C94.2833 43.6987 95.925 41.272 97.122 38.5034C98.3191 35.7349 98.9347 32.7441 98.9689 29.5312C98.9689 27.0361 98.5585 24.6265 97.7377 22.3022L79.2689 40.708L64.8017 26.25L83.2191 7.79297C80.8934 6.97266 78.4822 6.5625 75.9855 6.5625C72.8048 6.5625 69.8293 7.16064 67.059 8.35693C64.2886 9.55322 61.8603 11.1938 59.7741 13.2788C57.6878 15.3638 56.0461 17.7905 54.849 20.5591C53.652 23.3276 53.0364 26.3184 53.0022 29.5312C53.0022 30.7275 53.1048 31.8896 53.31 33.0176C53.5152 34.1455 53.7546 35.2734 54.0282 36.4014L10.1649 80.2881C9.17302 81.2793 8.40349 82.4243 7.85626 83.7231C7.30904 85.022 7.03543 86.3892 7.03543 87.8247C7.03543 89.2603 7.30904 90.6274 7.85626 91.9263C8.40349 93.2251 9.17302 94.353 10.1649 95.3101C11.1567 96.2671 12.2853 97.019 13.5508 97.5659C14.8163 98.1128 16.1843 98.4033 17.655 98.4375C19.0914 98.4375 20.4595 98.1641 21.7591 97.6172C23.0588 97.0703 24.2046 96.3013 25.1964 95.3101L69.1111 51.4746C70.2397 51.748 71.3683 51.9873 72.497 52.1924C73.6256 52.3975 74.7885 52.5 75.9855 52.5Z" fill="#2FB4C6"/>
</svg>
