<svg width="19" height="14" viewBox="0 0 19 14" fill="none" xmlns="http://www.w3.org/2000/svg">
<path d="M5.42857 2.8V0H19V2.8H5.42857ZM5.42857 8.39999V5.59999H19V8.39999H5.42857ZM5.42857 14V11.2H19V14H5.42857ZM1.35715 2.8C0.972623 2.8 0.650528 2.6656 0.390862 2.3968C0.131195 2.128 0.000909441 1.79573 4.6798e-06 1.4C-0.000900082 1.00427 0.129386 0.671999 0.390862 0.4032C0.652338 0.1344 0.974433 0 1.35715 0C1.73986 0 2.06241 0.1344 2.32479 0.4032C2.58717 0.671999 2.717 1.00427 2.71429 1.4C2.71158 1.79573 2.58129 2.12846 2.32343 2.3982C2.06558 2.66793 1.74348 2.80186 1.35715 2.8ZM1.35715 8.39999C0.972623 8.39999 0.650528 8.26559 0.390862 7.99679C0.131195 7.72799 0.000909441 7.39572 4.6798e-06 6.99999C-0.000900082 6.60426 0.129386 6.27199 0.390862 6.00319C0.652338 5.73439 0.974433 5.59999 1.35715 5.59999C1.73986 5.59999 2.06241 5.73439 2.32479 6.00319C2.58717 6.27199 2.717 6.60426 2.71429 6.99999C2.71158 7.39572 2.58129 7.72846 2.32343 7.99819C2.06558 8.26792 1.74348 8.40186 1.35715 8.39999ZM1.35715 14C0.972623 14 0.650528 13.8656 0.390862 13.5968C0.131195 13.328 0.000909441 12.9957 4.6798e-06 12.6C-0.000900082 12.2043 0.129386 11.872 0.390862 11.6032C0.652338 11.3344 0.974433 11.2 1.35715 11.2C1.73986 11.2 2.06241 11.3344 2.32479 11.6032C2.58717 11.872 2.717 12.2043 2.71429 12.6C2.71158 12.9957 2.58129 13.3284 2.32343 13.5982C2.06558 13.8679 1.74348 14.0018 1.35715 14Z" fill="#939393"/>
</svg>
