<svg width="330" height="184" viewBox="0 0 330 184" fill="none" xmlns="http://www.w3.org/2000/svg">
<g clip-path="url(#clip0_2584_407)">
<path d="M26.3182 89.1267C26.3182 103.522 21.697 130.24 21.697 130.24H7.23092C3.23779 130.24 0 111.835 0 89.1267C0 66.4183 3.23779 48.0132 7.23092 48.0132H21.697C21.697 48.0132 26.3182 78.7025 26.3182 89.1267Z" fill="white"/>
<path d="M18.1919 52.0867C19.3843 60.357 22.2614 81.1543 22.2614 89.1267C22.2614 100.028 19.4734 118.586 18.2555 126.167H8.46578C6.74292 122.949 4.05679 110.264 4.05679 89.1267C4.05679 67.9889 6.74292 55.3046 8.46578 52.0867H18.1919ZM21.697 48.0174H7.23092C3.23779 48.0132 0 66.4225 0 89.1267C0 111.831 3.23779 130.24 7.23092 130.24H21.697C21.697 130.24 26.3182 103.522 26.3182 89.1267C26.3182 78.7025 21.697 48.0132 21.697 48.0132V48.0174Z" fill="#2FB4C6"/>
<path d="M28.9345 89.1267C28.9345 111.831 25.6967 130.24 21.7036 130.24C17.7104 130.24 14.4727 111.835 14.4727 89.1267C14.4727 66.4183 17.7104 48.0132 21.7036 48.0132C25.6967 48.0132 28.9345 66.4183 28.9345 89.1267Z" fill="#2FB4C6"/>
<path d="M7.50411 60.4766C7.31739 61.3236 7.13492 62.243 6.96094 63.2348H17.1114C17.2132 62.6176 17.3193 62.0089 17.4297 61.4215C17.4891 61.098 17.5527 60.7873 17.6164 60.4766H7.50411Z" fill="#2FB4C6"/>
<path d="M17.8677 59.2718C18.3684 56.9733 18.9201 55.0451 19.5354 53.4702H9.88569C9.27887 54.2534 8.52353 56.2071 7.78516 59.2718H17.872H17.8677Z" fill="#2FB4C6"/>
<path d="M16.2636 108.796C16.0896 107.2 15.9326 105.548 15.8053 103.846H5.57422C5.71425 105.608 5.87975 107.251 6.06222 108.796H16.2636Z" fill="#2FB4C6"/>
<path d="M18.6235 122.025C18.1949 120.514 17.8003 118.795 17.4311 116.833C17.0364 114.734 16.697 112.44 16.4042 109.997H6.20703C6.89872 115.466 7.79834 119.493 8.63431 122.021H18.6235V122.025Z" fill="#2FB4C6"/>
<path d="M9.07031 123.226C9.35887 123.936 9.63045 124.46 9.88082 124.783H19.5305C19.3396 124.298 19.1571 123.779 18.9831 123.226H9.07031Z" fill="#2FB4C6"/>
<path d="M45.794 89.1271C45.794 107.685 39.8361 142.125 39.8361 142.125H21.1902C16.0428 142.125 11.8672 118.395 11.8672 89.1271C11.8672 59.8594 16.0428 36.1294 21.1902 36.1294H39.8361C39.8361 36.1294 45.794 75.6893 45.794 89.1271Z" fill="white"/>
<path d="M36.331 40.1986C37.7653 50.0907 41.7329 78.439 41.7329 89.1271C41.7329 103.765 37.8671 128.981 36.3946 138.056H22.1068C19.8365 134.753 15.9197 117.871 15.9197 89.1271C15.9197 60.3829 19.8365 43.5059 22.1068 40.1986H36.331ZM39.8361 36.1294H21.1902C16.0428 36.1294 11.8672 59.8594 11.8672 89.1271C11.8672 118.395 16.0428 142.125 21.1902 142.125H39.8361C39.8361 142.125 45.794 107.685 45.794 89.1271C45.794 75.6893 39.8361 36.1294 39.8361 36.1294Z" fill="#2FB4C6"/>
<path d="M39.8386 142.125C44.9875 142.125 49.1616 118.397 49.1616 89.1271C49.1616 59.8573 44.9875 36.1294 39.8386 36.1294C34.6897 36.1294 30.5156 59.8573 30.5156 89.1271C30.5156 118.397 34.6897 142.125 39.8386 142.125Z" fill="#2FB4C6"/>
<path d="M20.958 51.3843C20.7204 52.5037 20.4827 53.7126 20.2578 55.0193H33.3448C33.4763 54.2063 33.6121 53.4061 33.7564 52.6314C33.8328 52.2058 33.9134 51.7929 33.994 51.3843H20.958Z" fill="#2FB4C6"/>
<path d="M34.3185 49.8011C34.9635 46.7704 35.6764 44.2336 36.4657 42.1606H24.0238C23.243 43.195 22.267 45.7659 21.3164 49.8011H34.3185Z" fill="#2FB4C6"/>
<path d="M32.2513 115.036C32.0264 112.933 31.827 110.758 31.6572 108.511H18.4727C18.6551 110.831 18.8673 112.993 19.1007 115.036H32.2513Z" fill="#2FB4C6"/>
<path d="M35.2877 132.462C34.7361 130.475 34.2269 128.206 33.7516 125.622C33.2424 122.86 32.801 119.833 32.4276 116.62H19.2812C20.1724 123.826 21.3309 129.129 22.4087 132.462H35.2835H35.2877Z" fill="#2FB4C6"/>
<path d="M22.9766 134.046C23.3457 134.982 23.7022 135.672 24.0205 136.098H36.4624C36.2205 135.459 35.9829 134.774 35.7537 134.046H22.9766Z" fill="#2FB4C6"/>
<path d="M71.2495 89.1269C71.2495 113.048 63.5687 157.444 63.5687 157.444H39.5293C32.8925 157.444 27.5117 126.857 27.5117 89.1269C27.5117 51.3973 32.8925 20.8101 39.5293 20.8101H63.5687C63.5687 20.8101 71.2495 71.8072 71.2495 89.1269Z" fill="white"/>
<path d="M60.0678 24.8793C61.778 36.6102 67.1927 74.8889 67.1927 89.1269C67.1927 108.639 61.901 142.606 60.1357 153.375H40.1319C37.0935 150.174 31.5685 128.41 31.5685 89.1269C31.5685 49.8436 37.0935 28.0802 40.1319 24.8793H60.0678ZM63.5687 20.8101H39.5293C32.8925 20.8101 27.5117 51.3973 27.5117 89.1269C27.5117 126.857 32.8925 157.448 39.5293 157.448H63.5687C63.5687 157.448 71.2495 113.053 71.2495 89.1269C71.2495 71.8029 63.5687 20.8101 63.5687 20.8101Z" fill="#2FB4C6"/>
<path d="M63.5684 157.444C70.2055 157.444 75.586 126.857 75.586 89.1269C75.586 51.3965 70.2055 20.8101 63.5684 20.8101C56.9312 20.8101 51.5508 51.3965 51.5508 89.1269C51.5508 126.857 56.9312 157.444 63.5684 157.444Z" fill="#2FB4C6"/>
<path d="M36.65 38.2656C36.3444 39.7724 36.0389 41.4027 35.7461 43.1649H52.614C52.7837 42.0709 52.9577 40.9898 53.1444 39.9469C53.2463 39.3723 53.3481 38.819 53.4542 38.2656H36.65Z" fill="#2FB4C6"/>
<path d="M53.8712 36.129C54.7072 32.047 55.6195 28.6248 56.638 25.8325H40.6018C39.5961 27.2244 38.3357 30.6934 37.1094 36.129H53.8712Z" fill="#2FB4C6"/>
<path d="M51.2047 124.039C50.9119 121.204 50.6573 118.271 50.4409 115.249H33.4414C33.6748 118.373 33.9506 121.289 34.2519 124.039H51.2047Z" fill="#2FB4C6"/>
<path d="M55.1241 147.526C54.4112 144.844 53.7577 141.788 53.1424 138.311C52.4889 134.586 51.9202 130.513 51.4365 126.175H34.4922C35.6422 135.884 37.1359 143.035 38.5278 147.526H55.1241Z" fill="#2FB4C6"/>
<path d="M39.2542 149.658C39.7338 150.918 40.1878 151.85 40.5994 152.421H56.6356C56.3216 151.561 56.0203 150.637 55.7233 149.658H39.25H39.2542Z" fill="#2FB4C6"/>
<path d="M303.676 89.1267C303.676 103.522 308.297 130.24 308.297 130.24H322.763C326.756 130.24 329.994 111.835 329.994 89.1267C329.994 66.4183 326.756 48.0132 322.763 48.0132H308.297C308.297 48.0132 303.676 78.7025 303.676 89.1267Z" fill="white"/>
<path d="M321.528 52.0868C323.251 55.3047 325.937 67.9891 325.937 89.1269C325.937 110.265 323.251 122.949 321.528 126.167H311.738C310.521 118.586 307.733 100.032 307.733 89.1269C307.733 81.1587 310.61 60.3572 311.802 52.0868H321.528ZM322.763 48.0176H308.297C308.297 48.0176 303.676 78.7069 303.676 89.1311C303.676 103.527 308.297 130.245 308.297 130.245H322.763C326.756 130.245 329.994 111.84 329.994 89.1311C329.994 66.4227 326.756 48.0176 322.763 48.0176Z" fill="#2FB4C6"/>
<path d="M301.07 89.1267C301.07 111.831 304.308 130.24 308.301 130.24C312.294 130.24 315.532 111.835 315.532 89.1267C315.532 66.4183 312.294 48.0132 308.301 48.0132C304.308 48.0132 301.07 66.4183 301.07 89.1267Z" fill="#2FB4C6"/>
<path d="M322.499 60.4766C322.686 61.3236 322.868 62.243 323.042 63.2348H312.892C312.79 62.6176 312.684 62.0089 312.573 61.4215C312.514 61.098 312.45 60.7873 312.387 60.4766H322.499Z" fill="#2FB4C6"/>
<path d="M312.136 59.2718C311.635 56.9733 311.084 55.0451 310.473 53.4702H320.122C320.729 54.2534 321.485 56.2071 322.223 59.2718H312.136Z" fill="#2FB4C6"/>
<path d="M313.734 108.796C313.908 107.2 314.065 105.548 314.193 103.846H324.424C324.284 105.608 324.118 107.251 323.936 108.796H313.734Z" fill="#2FB4C6"/>
<path d="M311.383 122.025C311.811 120.514 312.206 118.795 312.575 116.833C312.97 114.734 313.309 112.44 313.602 109.997H323.799C323.108 115.466 322.208 119.493 321.372 122.021H311.383V122.025Z" fill="#2FB4C6"/>
<path d="M320.933 123.226C320.644 123.936 320.373 124.46 320.122 124.783H310.473C310.659 124.298 310.842 123.779 311.02 123.226H320.933Z" fill="#2FB4C6"/>
<path d="M284.203 89.1271C284.203 107.685 290.161 142.125 290.161 142.125H308.807C313.954 142.125 318.13 118.395 318.13 89.1271C318.13 59.8594 313.954 36.1294 308.807 36.1294H290.161C290.161 36.1294 284.203 75.6893 284.203 89.1271Z" fill="white"/>
<path d="M307.886 40.1986C310.156 43.5017 314.073 60.3829 314.073 89.1271C314.073 117.871 310.156 134.748 307.886 138.056H293.598C292.126 128.981 288.26 103.765 288.26 89.1271C288.26 78.439 292.228 50.0907 293.662 40.1986H307.886ZM308.807 36.1294H290.161C290.161 36.1294 284.203 75.6893 284.203 89.1271C284.203 107.685 290.161 142.125 290.161 142.125H308.807C313.954 142.125 318.13 118.399 318.13 89.1271C318.13 59.8551 313.954 36.1294 308.807 36.1294Z" fill="#2FB4C6"/>
<path d="M290.163 142.125C295.312 142.125 299.486 118.397 299.486 89.1271C299.486 59.8573 295.312 36.1294 290.163 36.1294C285.014 36.1294 280.84 59.8573 280.84 89.1271C280.84 118.397 285.014 142.125 290.163 142.125Z" fill="#2FB4C6"/>
<path d="M309.04 51.3843C309.278 52.5037 309.515 53.7126 309.74 55.0193H296.653C296.522 54.2063 296.386 53.4061 296.242 52.6314C296.165 52.2058 296.085 51.7929 296.004 51.3843H309.04Z" fill="#2FB4C6"/>
<path d="M295.682 49.8011C295.037 46.7704 294.324 44.2336 293.535 42.1606H305.977C306.758 43.195 307.734 45.7659 308.684 49.8011H295.682Z" fill="#2FB4C6"/>
<path d="M297.75 115.036C297.975 112.933 298.174 110.758 298.344 108.511H311.529C311.346 110.831 311.134 112.993 310.901 115.036H297.75Z" fill="#2FB4C6"/>
<path d="M294.711 132.462C295.263 130.475 295.772 128.206 296.247 125.622C296.756 122.86 297.198 119.833 297.571 116.62H310.717C309.826 123.826 308.668 129.129 307.59 132.462H294.715H294.711Z" fill="#2FB4C6"/>
<path d="M307.021 134.046C306.652 134.982 306.295 135.672 305.977 136.098H293.535C293.777 135.459 294.015 134.774 294.244 134.046H307.021Z" fill="#2FB4C6"/>
<path d="M258.75 89.1269C258.75 113.048 266.431 157.444 266.431 157.444H290.47C297.107 157.444 302.488 126.857 302.488 89.1269C302.488 51.3973 297.107 20.8101 290.47 20.8101H266.431C266.431 20.8101 258.75 71.8072 258.75 89.1269Z" fill="white"/>
<path d="M289.868 24.8793C292.906 28.0802 298.431 49.8436 298.431 89.1269C298.431 128.41 292.906 150.174 289.868 153.375H269.864C268.103 142.606 262.807 108.647 262.807 89.1269C262.807 74.8889 268.222 36.6102 269.932 24.8793H289.868ZM290.466 20.8101H266.427C266.427 20.8101 258.746 71.8072 258.746 89.1269C258.746 113.048 266.427 157.448 266.427 157.448H290.466C297.103 157.448 302.484 126.861 302.484 89.1269C302.484 51.393 297.103 20.8101 290.466 20.8101Z" fill="#2FB4C6"/>
<path d="M254.41 89.1269C254.41 126.857 259.791 157.444 266.428 157.444C273.065 157.444 278.445 126.857 278.445 89.1269C278.445 51.3973 273.065 20.8101 266.428 20.8101C259.791 20.8101 254.41 51.3973 254.41 89.1269Z" fill="#2FB4C6"/>
<path d="M293.355 38.2656C293.66 39.7724 293.966 41.4027 294.259 43.1649H277.391C277.221 42.0709 277.047 40.9898 276.864 39.9469C276.763 39.3723 276.661 38.819 276.555 38.2656H293.359H293.355Z" fill="#2FB4C6"/>
<path d="M276.134 36.129C275.298 32.047 274.386 28.6248 273.367 25.8325H289.403C290.409 27.2244 291.669 30.6934 292.896 36.129H276.134Z" fill="#2FB4C6"/>
<path d="M278.793 124.039C279.086 121.204 279.34 118.271 279.557 115.249H296.556C296.323 118.373 296.047 121.289 295.746 124.039H278.793Z" fill="#2FB4C6"/>
<path d="M274.879 147.526C275.592 144.844 276.245 141.788 276.861 138.311C277.514 134.586 278.083 130.513 278.567 126.175H295.511C294.361 135.884 292.867 143.035 291.475 147.526H274.879Z" fill="#2FB4C6"/>
<path d="M290.749 149.658C290.269 150.918 289.815 151.85 289.403 152.421H273.367C273.681 151.561 273.982 150.637 274.28 149.658H290.753H290.749Z" fill="#2FB4C6"/>
<path d="M266.435 80.0859H63.5703V98.1718H266.435V80.0859Z" fill="white"/>
<path d="M262.378 84.1552V94.0983H67.6271V84.1552H262.374H262.378ZM266.435 80.0859H63.5703V98.1718H266.435V80.0859Z" fill="#2FB4C6"/>
<path d="M236.127 0H93.8684C89.4551 14.8382 84.9188 37.4061 87.6856 64.503C90.4184 91.2636 99.0115 110.128 100.879 114.121C112.574 139.141 128.534 154.422 137.564 162.913C147.795 172.524 157.47 179.377 164.769 184C164.841 183.957 164.922 183.911 164.994 183.868C165.066 183.911 165.151 183.962 165.219 184C172.517 179.377 182.197 172.524 192.424 162.913C201.458 154.426 217.418 139.141 229.113 114.121C230.98 110.128 239.573 91.2636 242.306 64.503C245.073 37.4061 240.536 14.8382 236.123 0L236.127 0Z" fill="#2FB4C6"/>
<path d="M231.812 5.73354C236.989 24.9048 238.61 44.472 236.624 63.9199C234.192 87.7563 226.944 105.268 223.944 111.691C212.478 136.217 196.896 150.863 188.524 158.729C181.271 165.544 173.383 171.784 165.061 177.283L164.993 177.245L164.926 177.283C156.608 171.784 148.72 165.544 141.463 158.729C133.091 150.863 117.509 136.221 106.043 111.691C103.043 105.268 95.7947 87.7478 93.3631 63.9199C91.3772 44.4634 92.9982 24.8963 98.1753 5.73354H231.803H231.812ZM232.894 4.30762H97.0974C91.6445 23.9812 89.9132 44.0676 91.9543 64.0646C94.407 88.1096 101.727 105.804 104.761 112.295C116.346 137.072 132.055 151.838 140.496 159.768C148.028 166.846 156.222 173.295 164.883 178.956L164.993 178.892L165.104 178.956C173.765 173.291 181.959 166.846 189.491 159.768C197.931 151.838 213.645 137.072 225.226 112.295C228.26 105.804 235.58 88.1139 238.033 64.0646C240.074 44.0718 238.342 23.9854 232.889 4.30762H232.894Z" fill="white"/>
<path d="M121.562 86.2921V80.035L133.915 62.0981H143.981L132.086 80.035L127.512 78.6602H150.053V86.2921H121.567H121.562ZM136.657 91.2977V86.2921L136.949 78.6602V74.1951H146.183V91.2977H136.661H136.657Z" fill="white"/>
<path d="M164.606 91.9617C162.026 91.9617 159.748 91.3615 157.766 90.1697C155.784 88.9736 154.231 87.237 153.107 84.9555C151.982 82.674 151.422 79.9243 151.422 76.6979C151.422 73.4715 151.982 70.7175 153.107 68.4403C154.231 66.1588 155.78 64.4221 157.766 63.2261C159.748 62.03 162.026 61.4341 164.606 61.4341C167.186 61.4341 169.465 62.0342 171.447 63.2261C173.429 64.4221 174.982 66.1588 176.106 68.4403C177.231 70.7218 177.791 73.4757 177.791 76.6979C177.791 79.9201 177.231 82.6783 176.106 84.9555C174.982 87.237 173.429 88.9736 171.447 90.1697C169.465 91.3658 167.186 91.9617 164.606 91.9617ZM164.606 84.0787C165.243 84.0787 165.812 83.8573 166.312 83.4104C166.813 82.9677 167.208 82.2016 167.496 81.1161C167.789 80.0307 167.933 78.558 167.933 76.6936C167.933 74.8293 167.789 73.3225 167.496 72.2499C167.203 71.1815 166.809 70.4238 166.312 69.9769C165.812 69.5342 165.243 69.3086 164.606 69.3086C163.97 69.3086 163.401 69.5299 162.901 69.9769C162.4 70.4238 162.005 71.1815 161.717 72.2499C161.424 73.3225 161.28 74.8037 161.28 76.6936C161.28 78.5835 161.424 80.0307 161.717 81.1161C162.009 82.2016 162.404 82.9677 162.901 83.4104C163.401 83.8573 163.966 84.0787 164.606 84.0787Z" fill="white"/>
<path d="M179.949 86.2921V80.035L192.302 62.0981H202.368L190.473 80.035L185.899 78.6602H208.44V86.2921H179.953H179.949ZM195.043 91.2977V86.2921L195.336 78.6602V74.1951H204.57V91.2977H195.048H195.043Z" fill="white"/>
</g>
<defs>
<clipPath id="clip0_2584_407">
<rect width="330" height="184" fill="white"/>
</clipPath>
</defs>
</svg>
