<svg width="150" height="38" viewBox="0 0 150 38" fill="none" xmlns="http://www.w3.org/2000/svg">
<g clip-path="url(#clip0_2445_1731)">
<path fill-rule="evenodd" clip-rule="evenodd" d="M0 31.2549V25.2699L36.375 1.04495V9.02495L0 31.2549ZM0 34.5799V37.8099H36.375V26.8849L0 34.5799ZM0 0.949951H20.0625L0 18.715V0.949951Z" fill="#2FB4C6"/>
<path d="M48.0937 3.98995V7.97995H55.4062V10.83H48.0937V16.34H44.4375V1.23495H56.4375V4.08495H48.0937V3.98995ZM58.875 1.23495H62.5312V16.34H58.875V1.23495ZM69.6563 4.08495H64.5938V1.23495H78.4687V4.08495H73.4063V16.34H69.75V4.08495H69.6563ZM94.9688 1.23495V16.34H91.9687L84 7.12495V16.34H80.3437V1.23495H83.4375L91.3125 10.45V1.23495H94.9688ZM111.094 13.49V16.34H98.8125V1.23495H110.812V4.08495H102.469V7.40995H109.875V10.165H102.469V13.68H111.094V13.49ZM119.25 16.53C118.031 16.53 116.812 16.34 115.594 16.055C114.469 15.77 113.531 15.295 112.781 14.82L114 12.16C114.656 12.635 115.5 13.015 116.437 13.3C117.375 13.585 118.312 13.775 119.25 13.775C120.281 13.775 121.031 13.585 121.594 13.3C122.062 13.015 122.344 12.635 122.344 12.16C122.344 11.78 122.156 11.495 121.875 11.305C121.594 11.02 121.219 10.83 120.75 10.735C120.281 10.545 119.719 10.45 118.875 10.26C117.656 9.97495 116.719 9.68995 115.875 9.40495C115.125 9.11995 114.469 8.73995 113.906 8.07495C113.344 7.50495 113.062 6.64995 113.062 5.69995C113.062 4.84495 113.344 3.98995 113.812 3.32495C114.281 2.56495 115.031 1.99495 116.062 1.61495C117.094 1.23495 118.312 0.949951 119.719 0.949951C120.75 0.949951 121.687 1.04495 122.719 1.32995C123.656 1.51995 124.5 1.89995 125.25 2.27995L124.125 4.93995C122.625 4.17995 121.219 3.79995 119.719 3.79995C118.687 3.79995 117.938 3.98995 117.469 4.27495C117 4.55995 116.719 5.03495 116.719 5.50995C116.719 5.98495 117 6.45995 117.562 6.64995C118.125 6.93495 118.969 7.12495 120.187 7.40995C121.406 7.69495 122.344 7.97995 123.187 8.26495C123.937 8.54995 124.594 8.92995 125.156 9.59495C125.719 10.165 126 11.02 126 11.97C126 12.825 125.719 13.585 125.25 14.345C124.781 15.01 124.031 15.58 123 16.055C121.875 16.34 120.656 16.53 119.25 16.53ZM133.688 16.53C132.469 16.53 131.25 16.34 130.031 16.055C128.906 15.77 127.969 15.295 127.219 14.82L128.438 12.16C129.094 12.635 129.938 13.015 130.875 13.3C131.813 13.585 132.75 13.775 133.688 13.775C134.719 13.775 135.469 13.585 136.031 13.3C136.5 13.015 136.781 12.635 136.781 12.16C136.781 11.78 136.594 11.495 136.312 11.305C136.031 11.02 135.656 10.83 135.187 10.735C134.719 10.545 134.156 10.45 133.312 10.26C132.094 9.97495 131.062 9.68995 130.312 9.40495C129.562 9.11995 128.906 8.73995 128.344 8.07495C127.781 7.50495 127.5 6.64995 127.5 5.69995C127.5 4.84495 127.781 3.98995 128.25 3.32495C128.719 2.56495 129.469 1.99495 130.5 1.61495C131.531 1.23495 132.75 0.949951 134.156 0.949951C135.188 0.949951 136.125 1.04495 137.156 1.32995C138.094 1.51995 138.938 1.89995 139.688 2.27995L138.562 4.93995C137.062 4.17995 135.656 3.79995 134.156 3.79995C133.125 3.79995 132.375 3.98995 131.906 4.27495C131.437 4.55995 131.156 5.03495 131.156 5.50995C131.156 5.98495 131.438 6.45995 132 6.64995C132.562 6.93495 133.406 7.12495 134.625 7.40995C135.844 7.69495 136.781 7.97995 137.625 8.26495C138.375 8.54995 139.031 8.92995 139.594 9.59495C140.156 10.165 140.438 11.02 140.438 11.97C140.438 12.825 140.156 13.585 139.688 14.345C139.219 15.01 138.469 15.58 137.438 16.055C136.406 16.34 135.188 16.53 133.688 16.53Z" fill="white"/>
<path d="M67.0313 22.0399H63.375V37.1449H67.0313V22.0399Z" fill="white"/>
<path d="M79.0313 37.1449L85.875 22.0399H82.2188L77.3438 32.8699L72.5625 22.0399H68.625L75.4688 37.1449H79.0313Z" fill="white"/>
<path d="M90.8438 22.0399H87.1875V37.1449H90.8438V22.0399Z" fill="white"/>
<path d="M96.1875 36.955C97.4062 37.24 98.5312 37.43 99.8437 37.43C101.25 37.43 102.469 37.24 103.5 36.765C104.531 36.385 105.281 35.815 105.75 35.055C106.219 34.295 106.5 33.535 106.5 32.68C106.5 31.635 106.219 30.875 105.656 30.305C105.094 29.735 104.437 29.26 103.687 28.975C102.937 28.69 101.906 28.405 100.688 28.12C99.5625 27.835 98.625 27.645 98.0625 27.36C97.5 27.075 97.2187 26.695 97.2187 26.22C97.2187 25.745 97.5 25.27 97.9687 24.985C98.4375 24.7 99.1875 24.51 100.219 24.51C101.719 24.51 103.125 24.89 104.625 25.65L105.75 22.99C105 22.515 104.156 22.23 103.219 22.04C102.281 21.85 101.25 21.66 100.219 21.66C98.8125 21.66 97.5937 21.85 96.5625 22.325C95.5312 22.705 94.7812 23.275 94.3125 24.035C93.8437 24.7 93.5625 25.555 93.5625 26.41C93.5625 27.455 93.8437 28.215 94.4062 28.785C94.9687 29.355 95.625 29.83 96.375 30.115C97.125 30.4 98.1562 30.685 99.375 30.97C100.125 31.16 100.781 31.255 101.25 31.445C101.719 31.635 102.094 31.825 102.375 32.015C102.656 32.205 102.844 32.585 102.844 32.87C102.844 33.345 102.563 33.725 102.094 34.01C101.625 34.295 100.875 34.485 99.75 34.485C98.8125 34.485 97.875 34.295 96.9375 34.01C96 33.725 95.1563 33.345 94.5 32.87L93.2812 35.53C94.0312 36.195 94.9687 36.67 96.1875 36.955Z" fill="white"/>
<path d="M112.687 22.0399H109.031V37.1449H112.687V22.0399Z" fill="white"/>
<path d="M149.906 37.1449V22.0399H146.25V31.2549L138.375 22.0399H135.375V37.1449H139.031V27.9299L146.906 37.1449H149.906Z" fill="white"/>
<path fill-rule="evenodd" clip-rule="evenodd" d="M123.937 37.81C122.25 37.81 120.844 37.43 119.438 36.765C118.125 36.005 117.094 35.055 116.344 33.82C115.594 32.585 115.219 31.16 115.219 29.545C115.219 27.93 115.594 26.6 116.344 25.27C117.094 24.035 118.125 22.99 119.438 22.325C120.75 21.565 122.25 21.28 123.937 21.28C125.625 21.28 127.031 21.66 128.344 22.325C129.656 23.085 130.687 24.035 131.437 25.27C132.187 26.505 132.562 27.93 132.562 29.545C132.562 31.16 132.187 32.585 131.437 33.82C130.687 35.055 129.656 36.1 128.344 36.765C127.125 37.43 125.625 37.81 123.937 37.81ZM123.937 34.675C124.875 34.675 125.719 34.485 126.469 34.01C127.219 33.535 127.781 32.965 128.25 32.205C128.719 31.445 128.906 30.495 128.906 29.545C128.906 28.595 128.719 27.645 128.25 26.885C127.781 26.125 127.219 25.46 126.469 25.08C125.719 24.605 124.875 24.415 123.937 24.415C123 24.415 122.156 24.605 121.406 25.08C120.656 25.555 120.094 26.125 119.625 26.885C119.156 27.645 118.969 28.595 118.969 29.545C118.969 30.495 119.156 31.445 119.625 32.205C120.094 32.965 120.656 33.63 121.406 34.01C122.156 34.39 123 34.675 123.937 34.675Z" fill="white"/>
<path fill-rule="evenodd" clip-rule="evenodd" d="M44.4375 21.47H51.5625C53.25 21.47 54.8438 21.85 56.1563 22.515C57.4688 23.18 58.5 24.13 59.25 25.27C60 26.505 60.375 27.93 60.375 29.45C60.375 31.065 60 32.49 59.25 33.63C58.5 34.865 57.4688 35.815 56.1563 36.48C54.8438 37.145 53.3438 37.43 51.5625 37.43H44.3438V21.47H44.4375ZM51.375 34.485C52.9688 34.485 54.1875 34.01 55.125 33.155C56.0625 32.205 56.5312 31.065 56.5312 29.545C56.5312 28.025 56.0625 26.79 55.125 25.935C54.1875 24.985 52.9688 24.605 51.375 24.605H48V34.58H51.375V34.485Z" fill="white"/>
</g>
<defs>
<clipPath id="clip0_2445_1731">
<rect width="150" height="38" fill="white"/>
</clipPath>
</defs>
</svg>
