<svg width="200" height="50" viewBox="0 0 200 50" fill="none" xmlns="http://www.w3.org/2000/svg">
<path fill-rule="evenodd" clip-rule="evenodd" d="M0 41.125V33.25L48.5 1.375V11.875L0 41.125ZM0 45.5V49.75H48.5V35.375L0 45.5ZM0 1.25H26.75L0 24.625V1.25Z" fill="#2FB4C6"/>
<path d="M64.125 5.25V10.5H73.875V14.25H64.125V21.5H59.25V1.625H75.25V5.375H64.125V5.25ZM78.5 1.625H83.375V21.5H78.5V1.625ZM92.875 5.375H86.125V1.625H104.625V5.375H97.875V21.5H93V5.375H92.875ZM126.625 1.625V21.5H122.625L112 9.375V21.5H107.125V1.625H111.25L121.75 13.75V1.625H126.625ZM148.125 17.75V21.5H131.75V1.625H147.75V5.375H136.625V9.75H146.5V13.375H136.625V18H148.125V17.75ZM159 21.75C157.375 21.75 155.75 21.5 154.125 21.125C152.625 20.75 151.375 20.125 150.375 19.5L152 16C152.875 16.625 154 17.125 155.25 17.5C156.5 17.875 157.75 18.125 159 18.125C160.375 18.125 161.375 17.875 162.125 17.5C162.75 17.125 163.125 16.625 163.125 16C163.125 15.5 162.875 15.125 162.5 14.875C162.125 14.5 161.625 14.25 161 14.125C160.375 13.875 159.625 13.75 158.5 13.5C156.875 13.125 155.625 12.75 154.5 12.375C153.5 12 152.625 11.5 151.875 10.625C151.125 9.875 150.75 8.75 150.75 7.5C150.75 6.375 151.125 5.25 151.75 4.375C152.375 3.375 153.375 2.625 154.75 2.125C156.125 1.625 157.75 1.25 159.625 1.25C161 1.25 162.25 1.375 163.625 1.75C164.875 2 166 2.5 167 3L165.5 6.5C163.5 5.5 161.625 5 159.625 5C158.25 5 157.25 5.25 156.625 5.625C156 6 155.625 6.625 155.625 7.25C155.625 7.875 156 8.5 156.75 8.75C157.5 9.125 158.625 9.375 160.25 9.75C161.875 10.125 163.125 10.5 164.25 10.875C165.25 11.25 166.125 11.75 166.875 12.625C167.625 13.375 168 14.5 168 15.75C168 16.875 167.625 17.875 167 18.875C166.375 19.75 165.375 20.5 164 21.125C162.5 21.5 160.875 21.75 159 21.75ZM178.25 21.75C176.625 21.75 175 21.5 173.375 21.125C171.875 20.75 170.625 20.125 169.625 19.5L171.25 16C172.125 16.625 173.25 17.125 174.5 17.5C175.75 17.875 177 18.125 178.25 18.125C179.625 18.125 180.625 17.875 181.375 17.5C182 17.125 182.375 16.625 182.375 16C182.375 15.5 182.125 15.125 181.75 14.875C181.375 14.5 180.875 14.25 180.25 14.125C179.625 13.875 178.875 13.75 177.75 13.5C176.125 13.125 174.75 12.75 173.75 12.375C172.75 12 171.875 11.5 171.125 10.625C170.375 9.875 170 8.75 170 7.5C170 6.375 170.375 5.25 171 4.375C171.625 3.375 172.625 2.625 174 2.125C175.375 1.625 177 1.25 178.875 1.25C180.25 1.25 181.5 1.375 182.875 1.75C184.125 2 185.25 2.5 186.25 3L184.75 6.5C182.75 5.5 180.875 5 178.875 5C177.5 5 176.5 5.25 175.875 5.625C175.25 6 174.875 6.625 174.875 7.25C174.875 7.875 175.25 8.5 176 8.75C176.75 9.125 177.875 9.375 179.5 9.75C181.125 10.125 182.375 10.5 183.5 10.875C184.5 11.25 185.375 11.75 186.125 12.625C186.875 13.375 187.25 14.5 187.25 15.75C187.25 16.875 186.875 17.875 186.25 18.875C185.625 19.75 184.625 20.5 183.25 21.125C181.875 21.5 180.25 21.75 178.25 21.75Z" fill="#222222"/>
<path d="M89.375 29H84.5V48.875H89.375V29Z" fill="#222222"/>
<path d="M105.375 48.875L114.5 29H109.625L103.125 43.25L96.75 29H91.5L100.625 48.875H105.375Z" fill="#222222"/>
<path d="M121.125 29H116.25V48.875H121.125V29Z" fill="#222222"/>
<path d="M128.25 48.625C129.875 49 131.375 49.25 133.125 49.25C135 49.25 136.625 49 138 48.375C139.375 47.875 140.375 47.125 141 46.125C141.625 45.125 142 44.125 142 43C142 41.625 141.625 40.625 140.875 39.875C140.125 39.125 139.25 38.5 138.25 38.125C137.25 37.75 135.875 37.375 134.25 37C132.75 36.625 131.5 36.375 130.75 36C130 35.625 129.625 35.125 129.625 34.5C129.625 33.875 130 33.25 130.625 32.875C131.25 32.5 132.25 32.25 133.625 32.25C135.625 32.25 137.5 32.75 139.5 33.75L141 30.25C140 29.625 138.875 29.25 137.625 29C136.375 28.75 135 28.5 133.625 28.5C131.75 28.5 130.125 28.75 128.75 29.375C127.375 29.875 126.375 30.625 125.75 31.625C125.125 32.5 124.75 33.625 124.75 34.75C124.75 36.125 125.125 37.125 125.875 37.875C126.625 38.625 127.5 39.25 128.5 39.625C129.5 40 130.875 40.375 132.5 40.75C133.5 41 134.375 41.125 135 41.375C135.625 41.625 136.125 41.875 136.5 42.125C136.875 42.375 137.125 42.875 137.125 43.25C137.125 43.875 136.75 44.375 136.125 44.75C135.5 45.125 134.5 45.375 133 45.375C131.75 45.375 130.5 45.125 129.25 44.75C128 44.375 126.875 43.875 126 43.25L124.375 46.75C125.375 47.625 126.625 48.25 128.25 48.625Z" fill="#222222"/>
<path d="M150.25 29H145.375V48.875H150.25V29Z" fill="#222222"/>
<path d="M199.875 48.875V29H195V41.125L184.5 29H180.5V48.875H185.375V36.75L195.875 48.875H199.875Z" fill="#222222"/>
<path fill-rule="evenodd" clip-rule="evenodd" d="M165.25 49.75C163 49.75 161.125 49.25 159.25 48.375C157.5 47.375 156.125 46.125 155.125 44.5C154.125 42.875 153.625 41 153.625 38.875C153.625 36.75 154.125 35 155.125 33.25C156.125 31.625 157.5 30.25 159.25 29.375C161 28.375 163 28 165.25 28C167.5 28 169.375 28.5 171.125 29.375C172.875 30.375 174.25 31.625 175.25 33.25C176.25 34.875 176.75 36.75 176.75 38.875C176.75 41 176.25 42.875 175.25 44.5C174.25 46.125 172.875 47.5 171.125 48.375C169.5 49.25 167.5 49.75 165.25 49.75ZM165.25 45.625C166.5 45.625 167.625 45.375 168.625 44.75C169.625 44.125 170.375 43.375 171 42.375C171.625 41.375 171.875 40.125 171.875 38.875C171.875 37.625 171.625 36.375 171 35.375C170.375 34.375 169.625 33.5 168.625 33C167.625 32.375 166.5 32.125 165.25 32.125C164 32.125 162.875 32.375 161.875 33C160.875 33.625 160.125 34.375 159.5 35.375C158.875 36.375 158.625 37.625 158.625 38.875C158.625 40.125 158.875 41.375 159.5 42.375C160.125 43.375 160.875 44.25 161.875 44.75C162.875 45.25 164 45.625 165.25 45.625Z" fill="#222222"/>
<path fill-rule="evenodd" clip-rule="evenodd" d="M59.25 28.25H68.75C71 28.25 73.125 28.75 74.875 29.625C76.625 30.5 78 31.75 79 33.25C80 34.875 80.5 36.75 80.5 38.75C80.5 40.875 80 42.75 79 44.25C78 45.875 76.625 47.125 74.875 48C73.125 48.875 71.125 49.25 68.75 49.25H59.125V28.25H59.25ZM68.5 45.375C70.625 45.375 72.25 44.75 73.5 43.625C74.75 42.375 75.375 40.875 75.375 38.875C75.375 36.875 74.75 35.25 73.5 34.125C72.25 32.875 70.625 32.375 68.5 32.375H64V45.5H68.5V45.375Z" fill="#222222"/>
</svg>
